<svg id="Calque_1" data-name="Calque 1" xmlns="http://www.w3.org/2000/svg" xmlns:xlink="http://www.w3.org/1999/xlink" viewBox="0 0 1200 1200"><defs><style>.cls-1{fill:url(#degradé_écran);}.cls-2{fill:#444644;}.cls-3{fill:#009ee2;fill-rule:evenodd;}</style><linearGradient id="degradé_écran" x1="248.59" y1="243.44" x2="945.65" y2="940.5" gradientUnits="userSpaceOnUse"><stop offset="0" stop-color="#fff"/><stop offset="0.4" stop-color="#fbfbfb"/><stop offset="0.81" stop-color="#eee"/><stop offset="1" stop-color="#e6e6e6"/></linearGradient></defs><title>picto_logo-telephone</title><rect class="cls-1" x="352.59" y="118.93" width="489.05" height="946.07" rx="35" ry="35"/><path class="cls-2" d="M853.6,358.86V238.31a3.44,3.44,0,0,0-3.09-3.32V142.48a44.08,44.08,0,0,0-44.08-44.07H389.37a44.07,44.07,0,0,0-44.08,44.07h0v910.84a44.08,44.08,0,0,0,44,44.19H806.43a44.19,44.19,0,0,0,44.19-44.19h0V473.11a3.42,3.42,0,0,0,3.09-3.43v-56a3.43,3.43,0,0,0-3.09-3.32V362.29A3.43,3.43,0,0,0,853.6,358.86ZM685,132.07a10,10,0,1,1-9.84,10.07V142a9.84,9.84,0,0,1,9.73-10Zm-119,5.72h67.32a5,5,0,0,1,0,10.08H566a5,5,0,0,1,0-10.08Zm-37.32-4.69a8.81,8.81,0,0,1,8.82,8.81V142a8.7,8.7,0,0,1-8.59,8.81h-.23a8.81,8.81,0,0,1-8.93-8.7V142A8.93,8.93,0,0,1,528.69,133.1Zm305.33,868H364V173.51H834Z"/><path class="cls-3" d="M673.07,569.28h41.48a17,17,0,0,1,17,17v31.51a17,17,0,0,1-17,17H673.07a17,17,0,0,1-17-17V586.25a17,17,0,0,1,17-17Zm.47,11.88h40.22a5.78,5.78,0,0,1,5.75,5.75V617a5.76,5.76,0,0,1-5.75,5.75H673.54A5.75,5.75,0,0,1,667.8,617V586.91a5.77,5.77,0,0,1,5.74-5.75ZM503,569.28h41.47a17,17,0,0,1,17,17v31.51a17,17,0,0,1-17,17H503a17,17,0,0,1-17-17V586.25a17,17,0,0,1,17-17Zm.47,11.88h40.23a5.77,5.77,0,0,1,5.73,5.75V617a5.75,5.75,0,0,1-5.73,5.75H503.51a5.76,5.76,0,0,1-5.75-5.75V586.91a5.78,5.78,0,0,1,5.75-5.75Zm257.28-11.88h36.26c6.78,0,5.9,11.88-.39,11.88H761.25a5.76,5.76,0,0,0-5.72,5.75v42.31c-.38,7.49-11.82,7-11.7,0v-43a17,17,0,0,1,17-17Zm-181,0H626.5a17,17,0,0,1,17,17v42.33c0,8.27-12,8.72-12,.1V586.91a5.77,5.77,0,0,0-5.74-5.75H579.85c-8.45.4-7.73-11.88-.1-11.88Zm-.18,19.1h0a6.11,6.11,0,0,1,6.09,6.09v34.28a6.1,6.1,0,0,1-6.09,6.09h0a6.11,6.11,0,0,1-6.08-6.09V594.47a6.12,6.12,0,0,1,6.08-6.09Zm-175.25,0h0a6.11,6.11,0,0,1,6.09,6.09v34.28a6.11,6.11,0,0,1-6.09,6.09h0a6.1,6.1,0,0,1-6.09-6.09V594.47a6.11,6.11,0,0,1,6.09-6.09Zm9-19.1h42.54a17,17,0,0,1,17,17v42.33c0,8.27-12,8.72-12,.1V586.91a5.8,5.8,0,0,0-5.76-5.75l-42.8-.28c-9.59-.75-13.46-9.21-13.59-16.38l-.44-23.63c0-2.88,2.73-5.22,6.09-5.22h0c3.35,0,6.09,2.34,6.09,5.22v24.94a3.5,3.5,0,0,0,2.91,3.47Z"/></svg>