<?xml version="1.0" encoding="UTF-8"?> <svg xmlns="http://www.w3.org/2000/svg" viewBox="0 0 263.65 90.89"><defs><style>.cls-1{fill:#303d52;}.cls-2,.cls-4{fill:#fff;}.cls-2{stroke:#4e99d6;stroke-miterlimit:10;}.cls-3{fill:#4e99d6;}</style></defs><g id="Layer_2" data-name="Layer 2"><g id="bottom"><path class="cls-1" d="M51.68,83.7c-.73,3.87-2.9,6.51-6.85,7.19H7.19c-3.87,0-7.19-4-7.19-6.72v-57l3.06-.85s.09,44.06.09,46.36,2.12,5.79,5.27,5.79H43c3.28,0,5.11-2.26,5.11-5.45l3.53-.76"></path><circle class="cls-2" cx="27.06" cy="85.17" r="3.72"></circle><path class="cls-3" d="M82.4,40.36v.27a7.28,7.28,0,0,1-1.81.49L80.27,41q-3.9-5.28-6.6-9.65H68.61v2l.08,7.49H66.6l.12-7.38L66.6,16.53l6.83,0a8.23,8.23,0,0,1,5.63,1.74,6.42,6.42,0,0,1,2,5.06,7.5,7.5,0,0,1-1.45,4.61,8.65,8.65,0,0,1-4.14,2.95Q78.46,35.47,82.4,40.36ZM68.65,29.57l5.22.07a6.88,6.88,0,0,0,3.74-2.22,6.13,6.13,0,0,0,1.29-4,4.89,4.89,0,0,0-1.47-3.85,6.41,6.41,0,0,0-4.24-1.39l-4.46.07Z"></path><path class="cls-3" d="M102,39.26l-.2,1.56H88.23l.12-7.38-.12-16.91h13.51l.16.23-.24,1.56-6-.08-5.31,0-.08,9.16,5,0,4.31,0,.16.19-.2,1.56-9.29,0,0,4.18.08,5.78,5.19,0,6.31-.11Z"></path><path class="cls-3" d="M119.55,18.3a6.64,6.64,0,0,1,2,5.15,8,8,0,0,1-2.39,6.17,9.5,9.5,0,0,1-6.74,2.23H109.1v1.48l.08,7.49h-2.1l.13-7.38-.13-16.91,6.84,0A8.07,8.07,0,0,1,119.55,18.3Zm-1.65,9.82a6.64,6.64,0,0,0,1.49-4.52,5.18,5.18,0,0,0-1.47-4,6.27,6.27,0,0,0-4.24-1.44l-4.46.07-.08,11.86,4.46.08A6.51,6.51,0,0,0,117.9,28.12Z"></path><path class="cls-3" d="M143.15,40.82H141l-.56-2.06-1.93-5.24-6.12-.08-5.5.08-2.09,5.17-.61,2.13H122l9.81-24.29h2.37Zm-5.31-9-4.78-13h-.24l-5.23,13,5,0Z"></path><path class="cls-3" d="M164,40.36v.27a7.41,7.41,0,0,1-1.81.49l-.32-.15q-3.9-5.28-6.6-9.65h-5.06v2l.08,7.49h-2.09l.12-7.38-.12-16.91,6.83,0a8.23,8.23,0,0,1,5.63,1.74,6.42,6.42,0,0,1,2,5.06,7.5,7.5,0,0,1-1.45,4.61,8.65,8.65,0,0,1-4.14,2.95Q160.07,35.47,164,40.36ZM150.27,29.57l5.22.07a6.88,6.88,0,0,0,3.74-2.22,6.13,6.13,0,0,0,1.29-4,4.89,4.89,0,0,0-1.47-3.85,6.41,6.41,0,0,0-4.24-1.39l-4.46.07Z"></path><path class="cls-3" d="M187.58,40.82h-2.17l-.56-2.06-1.94-5.24-6.11-.08-5.5.08-2.1,5.17-.6,2.13h-2.17l9.81-24.29h2.37Zm-5.31-9-4.78-13h-.24l-5.23,13,5,0Z"></path><path class="cls-3" d="M204.71,16.76l-.2,1.52-4.31-.11h-3.13L197,33.33l.08,7.49h-2.09l.12-7.38-.12-15.27H191.8l-4.38.11-.16-.23.2-1.52h17Z"></path><path class="cls-3" d="M211.74,33.33l.08,7.49h-2.09l.12-7.38-.12-16.91h2.13Z"></path><path class="cls-3" d="M236,19.4c1.85,2.07,2.77,5,2.77,8.84q0,6.19-2.93,9.5T227.5,41c-3.4,0-6-1-7.88-3.17s-2.77-5.13-2.77-9.06,1-7.09,2.91-9.25,4.71-3.25,8.31-3.25S234.18,17.34,236,19.4Zm-14.8,1.28c-1.53,1.8-2.29,4.44-2.29,7.94s.74,6.27,2.21,8.09a7.86,7.86,0,0,0,6.51,2.74,8.22,8.22,0,0,0,6.72-2.78c1.53-1.84,2.29-4.56,2.29-8.13s-.74-6.13-2.21-7.9A8,8,0,0,0,228,18Q223.53,18,221.23,20.68Z"></path><path class="cls-3" d="M263.53,33.9v6.92H261.4l-14.72-21h-.2l0,13.19,0,7.79h-1.93l.08-7.22,0-17.07h2.17l14.68,21h.2l0-20.86,2-.15Z"></path><path class="cls-1" d="M81.43,77.24H67.26a1.87,1.87,0,0,1-2-1.89,3.9,3.9,0,0,1,.07-.64l3.59-20.33a2.69,2.69,0,0,1,2.76-2.31H85.25a1.74,1.74,0,0,1,1.85,1.85,2.45,2.45,0,0,1-2.57,2.42H73.19l-1.06,6h6.2a1.71,1.71,0,0,1,1.86,1.85,2.45,2.45,0,0,1-2.58,2.42H71.38L70.24,73H82.15A1.74,1.74,0,0,1,84,74.83,2.44,2.44,0,0,1,81.43,77.24Z"></path><path class="cls-1" d="M87.86,73.84l9.37-9.6-5.48-9.11a2.17,2.17,0,0,1-.34-1.05,2.41,2.41,0,0,1,2.65-2.31A2,2,0,0,1,95.83,53l4.73,8,7.78-8.47a2.29,2.29,0,0,1,1.74-.79,2,2,0,0,1,2,2,2.27,2.27,0,0,1-.72,1.59l-8.69,9.26,5.7,9.56a2,2,0,0,1,.27,1,2.4,2.4,0,0,1-2.42,2.35,1.9,1.9,0,0,1-1.78-1.1l-5-8.47-8.35,8.7a2.44,2.44,0,0,1-1.89.87,2.12,2.12,0,0,1-1.32-3.71Z"></path><path class="cls-1" d="M126.6,67.49h-7.22L118,75.2a2.57,2.57,0,0,1-2.72,2.35,1.85,1.85,0,0,1-1.93-1.93,2.41,2.41,0,0,1,0-.42l3.67-20.82a2.57,2.57,0,0,1,2.72-2.31h9.49c5.48,0,7.78,2.84,7.78,6.35C137.07,63.83,133.82,67.49,126.6,67.49Zm1.4-4.27a4,4,0,0,0,4.35-4c0-1.7-1.06-2.88-3.25-2.88h-7.75l-1.21,6.92Z"></path><path class="cls-1" d="M159.19,75.24c0,1.59-1.4,2.31-2.8,2.31a2,2,0,0,1-1.93-1.63l-2.72-8.73h-7.6l-1.4,8A2.56,2.56,0,0,1,140,77.55a1.8,1.8,0,0,1-1.93-1.89,4.27,4.27,0,0,1,.08-.61l3.63-20.67a2.48,2.48,0,0,1,2.72-2.31h9.71c5.37,0,7.83,2.61,7.83,6.39s-1.74,6.39-5.56,7.9l2.5,7.9A3.32,3.32,0,0,1,159.19,75.24Zm-6.28-12A4.11,4.11,0,0,0,157.26,59c0-1.59-.95-2.73-3.14-2.73h-8.05l-1.21,6.92Z"></path><path class="cls-1" d="M180.47,77.24H166.29a1.87,1.87,0,0,1-2-1.89,5.42,5.42,0,0,1,.07-.64L168,54.38a2.69,2.69,0,0,1,2.76-2.31h13.56a1.75,1.75,0,0,1,1.86,1.85,2.45,2.45,0,0,1-2.57,2.42H172.23l-1.06,6h6.2a1.71,1.71,0,0,1,1.85,1.85,2.45,2.45,0,0,1-2.57,2.42h-6.24L169.28,73h11.9A1.75,1.75,0,0,1,183,74.83,2.45,2.45,0,0,1,180.47,77.24Z"></path><path class="cls-1" d="M196.38,77.7a13,13,0,0,1-8.84-3.06,2.44,2.44,0,0,1-.95-1.86,2,2,0,0,1,2.16-2.15,2.34,2.34,0,0,1,1.66.72,10.31,10.31,0,0,0,6.42,2.27c3.41,0,5.41-1.4,5.41-3.44,0-1.82-1.51-2.46-5.33-3.67-6.08-1.93-7.67-4.12-7.67-7.37,0-5.06,3.85-7.52,10-7.52a15,15,0,0,1,6.05,1.17c1.51.64,3.36,1.74,3.36,3.29a1.81,1.81,0,0,1-2,2,2,2,0,0,1-.94-.22,11.77,11.77,0,0,0-6.35-2.12c-3.06,0-5.37.83-5.37,3.06,0,1.63,1.55,2.27,5.4,3.59,3.67,1.25,7.6,2.5,7.6,7.22S203.34,77.7,196.38,77.7Z"></path><path class="cls-1" d="M219.89,77.7a13,13,0,0,1-8.84-3.06,2.44,2.44,0,0,1-1-1.86,2,2,0,0,1,2.16-2.15,2.34,2.34,0,0,1,1.66.72,10.32,10.32,0,0,0,6.43,2.27c3.4,0,5.4-1.4,5.4-3.44,0-1.82-1.51-2.46-5.33-3.67-6.08-1.93-7.67-4.12-7.67-7.37,0-5.06,3.86-7.52,10.05-7.52a15,15,0,0,1,6,1.17c1.51.64,3.36,1.74,3.36,3.29a1.81,1.81,0,0,1-2,2,2,2,0,0,1-.94-.22,11.77,11.77,0,0,0-6.35-2.12c-3.06,0-5.37.83-5.37,3.06,0,1.63,1.55,2.27,5.41,3.59,3.66,1.25,7.59,2.5,7.59,7.22S226.85,77.7,219.89,77.7Z"></path></g><g id="Layer_2-2" data-name="Layer 2"><path class="cls-3" d="M7.91,12.51c2.94,0,31.47-.39,35.05,0s5,2.75,5.45,5.51l-.09,46.7L51.66,64V6.58S50.38,0,44.49,0H6.64C5.43.05,1,1,0,6.89v12l3.33-.51C3.32,16,4.47,13,7.91,12.51Z"></path></g><g id="Roue_bleue_copy" data-name="Roue bleue copy"><circle class="cls-1" cx="37.55" cy="44.56" r="4.73"></circle><circle class="cls-4" cx="37.55" cy="44.56" r="3.36"></circle><rect class="cls-1" x="31.34" y="44.32" width="1.84" height="1.84"></rect><rect class="cls-1" x="31.99" y="40.83" width="1.84" height="1.84" transform="translate(25.28 -10.86) rotate(30)"></rect><rect class="cls-1" x="34.89" y="38.56" width="1.84" height="1.84" transform="translate(63.04 -6.33) rotate(72.94)"></rect><rect class="cls-1" x="38.38" y="38.56" width="1.84" height="1.84" transform="translate(15.44 -10.86) rotate(19.51)"></rect><rect class="cls-1" x="41.36" y="41" width="1.84" height="1.84" transform="translate(57.45 -15.65) rotate(60)"></rect><rect class="cls-1" x="41.99" y="44.56" width="1.84" height="1.84" transform="translate(9.3 -7.25) rotate(10.82)"></rect><rect class="cls-1" x="39.98" y="47.92" width="1.84" height="1.84" transform="translate(53.67 -13.58) rotate(51.5)"></rect><rect class="cls-1" x="36.6" y="48.8" width="1.84" height="1.84"></rect><rect class="cls-1" x="33.17" y="47.68" width="1.84" height="1.84" transform="translate(40.18 -10.45) rotate(40.94)"></rect></g><g id="Layer_7" data-name="Layer 7"><circle class="cls-3" cx="20.76" cy="50.77" r="8.05"></circle><circle class="cls-4" cx="20.76" cy="50.77" r="5.71"></circle><rect class="cls-3" x="10.21" y="50.38" width="3.13" height="3.13"></rect><rect class="cls-3" x="11.32" y="44.43" width="3.13" height="3.13" transform="translate(24.72 -0.28) rotate(30)"></rect><rect class="cls-3" x="16.24" y="40.57" width="3.13" height="3.13" transform="translate(52.86 12.76) rotate(72.94)"></rect><rect class="cls-3" x="22.18" y="40.57" width="3.13" height="3.13" transform="translate(15.44 -5.51) rotate(19.51)"></rect><rect class="cls-3" x="27.24" y="44.74" width="3.13" height="3.13" transform="translate(54.5 -1.79) rotate(60)"></rect><rect class="cls-3" x="28.3" y="50.77" width="3.13" height="3.13" transform="translate(10.36 -4.68) rotate(10.82)"></rect><rect class="cls-3" x="24.9" y="56.48" width="3.13" height="3.13" transform="translate(55.42 1.2) rotate(51.5)"></rect><rect class="cls-3" x="19.15" y="57.99" width="3.13" height="3.13"></rect><rect class="cls-3" x="13.32" y="56.08" width="3.13" height="3.13" transform="translate(41.41 4.34) rotate(40.94)"></rect></g><g id="Roue_bleue" data-name="Roue bleue"><circle class="cls-3" cx="31.67" cy="33.67" r="3.98"></circle><circle class="cls-4" cx="31.67" cy="33.67" r="2.83"></circle><rect class="cls-3" x="26.45" y="33.47" width="1.55" height="1.55"></rect><rect class="cls-3" x="27" y="30.53" width="1.55" height="1.55" transform="translate(19.37 -9.69) rotate(30)"></rect><rect class="cls-3" x="29.43" y="28.62" width="1.55" height="1.55" transform="matrix(0.29, 0.96, -0.96, 0.29, 49.45, -8.11)"></rect><rect class="cls-3" x="32.38" y="28.62" width="1.55" height="1.55" transform="translate(11.72 -9.39) rotate(19.51)"></rect><rect class="cls-3" x="34.88" y="30.68" width="1.55" height="1.55" transform="translate(45.07 -15.15) rotate(60)"></rect><rect class="cls-3" x="35.41" y="33.67" width="1.55" height="1.55" transform="translate(7.11 -6.18) rotate(10.82)"></rect><rect class="cls-3" x="33.72" y="36.49" width="1.55" height="1.55" transform="translate(42.19 -12.93) rotate(51.5)"></rect><rect class="cls-3" x="30.88" y="37.24" width="1.55" height="1.55"></rect><rect class="cls-3" x="27.99" y="36.29" width="1.55" height="1.55" transform="translate(31.32 -9.78) rotate(40.94)"></rect></g><g id="Layer_3" data-name="Layer 3"><circle class="cls-1" cx="21.75" cy="34.54" r="2.16"></circle><circle class="cls-4" cx="21.75" cy="34.54" r="1.53"></circle><rect class="cls-1" x="18.92" y="34.43" width="0.84" height="0.84"></rect><rect class="cls-1" x="19.22" y="32.84" width="0.84" height="0.84" transform="translate(19.26 -5.36) rotate(30)"></rect><rect class="cls-1" x="20.53" y="31.8" width="0.84" height="0.84" transform="translate(45.61 2.74) rotate(72.94)"></rect><rect class="cls-1" x="22.13" y="31.8" width="0.84" height="0.84" transform="translate(12.06 -5.68) rotate(19.51)"></rect><rect class="cls-1" x="23.49" y="32.92" width="0.84" height="0.84" transform="translate(40.83 -4.03) rotate(60)"></rect><rect class="cls-1" x="23.77" y="34.54" width="0.84" height="0.84" transform="translate(6.99 -3.92) rotate(10.82)"></rect><rect class="cls-1" x="22.86" y="36.07" width="0.84" height="0.84" transform="translate(37.35 -4.44) rotate(51.5)"></rect><rect class="cls-1" x="21.32" y="36.48" width="0.84" height="0.84"></rect><rect class="cls-1" x="19.75" y="35.96" width="0.84" height="0.84" transform="translate(28.77 -4.32) rotate(40.94)"></rect></g></g></svg> 