<?xml version="1.0" encoding="utf-8"?>
<!-- Generator: Adobe Illustrator 24.3.0, SVG Export Plug-In . SVG Version: 6.00 Build 0)  -->
<svg version="1.1" xmlns="http://www.w3.org/2000/svg" xmlns:xlink="http://www.w3.org/1999/xlink" x="0px" y="0px"
	 viewBox="0 0 1200 1200" style="enable-background:new 0 0 1200 1200;" xml:space="preserve">
<style type="text/css">
	.st0{fill:url(#SVGID_1_);}
	.st1{fill:#444644;}
	.st2{fill:url(#SVGID_2_);}
	.st3{fill:url(#SVGID_3_);}
	.st4{fill:#009A3E;}
	.st5{fill:url(#SVGID_4_);}
	.st6{fill-rule:evenodd;clip-rule:evenodd;fill:#C2004D;}
	.st7{fill-rule:evenodd;clip-rule:evenodd;fill:#FFFFFF;}
	.st8{fill-rule:evenodd;clip-rule:evenodd;fill:#868686;}
	.st9{fill:url(#SVGID_5_);}
	.st10{clip-path:url(#SVGID_7_);}
	.st11{clip-path:url(#SVGID_9_);}
	.st12{clip-path:url(#SVGID_13_);}
	.st13{clip-path:url(#SVGID_15_);}
	.st14{clip-path:url(#SVGID_19_);}
	.st15{clip-path:url(#SVGID_21_);}
	.st16{clip-path:url(#SVGID_25_);}
	.st17{clip-path:url(#SVGID_27_);}
	.st18{clip-path:url(#SVGID_31_);}
	.st19{clip-path:url(#SVGID_33_);}
	.st20{clip-path:url(#SVGID_37_);}
	.st21{clip-path:url(#SVGID_39_);}
	.st22{clip-path:url(#SVGID_43_);}
	.st23{clip-path:url(#SVGID_45_);}
	.st24{clip-path:url(#SVGID_49_);}
	.st25{clip-path:url(#SVGID_51_);}
	.st26{fill:url(#SVGID_54_);}
	.st27{fill:url(#SVGID_55_);}
	.st28{fill:url(#SVGID_56_);}
	.st29{fill:url(#SVGID_57_);}
	.st30{fill:#2056AE;}
	.st31{fill:url(#SVGID_58_);}
	.st32{fill:#016BB5;}
	.st33{fill:url(#SVGID_59_);}
	.st34{fill-rule:evenodd;clip-rule:evenodd;fill:#0059A2;}
	.st35{fill:url(#SVGID_60_);}
	.st36{fill:#65B22E;}
	.st37{display:none;}
	.st38{fill:#002F87;}
	.st39{fill:url(#SVGID_61_);}
	.st40{fill:url(#SVGID_62_);}
	.st41{fill:#00A39B;}
	.st42{fill:#121212;}
	.st43{fill-rule:evenodd;clip-rule:evenodd;fill:#009EE2;}
	.st44{fill:url(#SVGID_63_);}
	.st45{fill:#2360A5;}
	.st46{fill:#FFFFFF;}
	.st47{fill:url(#SVGID_64_);}
	.st48{fill:none;stroke:#000000;stroke-width:2;stroke-miterlimit:10;}
	.st49{fill:url(#SVGID_65_);}
	.st50{fill:url(#SVGID_66_);}
	.st51{fill:url(#SVGID_67_);}
	.st52{fill:url(#SVGID_68_);}
	.st53{fill:url(#SVGID_69_);}
</style>
<g id="Calque_1">
	<g>
		<g>
			
				<linearGradient id="SVGID_1_" gradientUnits="userSpaceOnUse" x1="247.0337" y1="247.1966" x2="951.9691" y2="952.132" gradientTransform="matrix(1 2.430718e-04 -2.430718e-04 1 0.6459 0.2955)">
				<stop  offset="1.603691e-06" style="stop-color:#FFFFFF"/>
				<stop  offset="0.3971" style="stop-color:#FBFBFB"/>
				<stop  offset="0.8132" style="stop-color:#EEEEEE"/>
				<stop  offset="1" style="stop-color:#E6E6E6"/>
			</linearGradient>
			<path class="st0" d="M857.8,182.4c-0.1-39.3-32-71.2-71.3-71.2l-372.9-0.1c-39.3,0-71.2,31.8-71.3,71.1l-0.2,835.6
				c0.1,39.3,32,71.2,71.3,71.2l372.9,0.1c39.3,0,71.2-31.8,71.3-71.1L857.8,182.4L857.8,182.4z"/>
		</g>
		<g>
			<path class="st1" d="M863.9,172.4c-0.1-40.3-32.7-72.8-73-72.8l-381.6-0.1c-40.2,0-72.9,32.6-73,72.8l-0.2,855.3
				c0.1,40.3,32.7,72.8,73,72.8l381.6,0.1c40.3,0,72.9-32.6,73-72.8L863.9,172.4L863.9,172.4z M842.1,1027.7
				c-0.1,28.3-23.1,51.3-51.4,51.2l-381.6-0.1c-28.3,0-51.3-22.9-51.4-51.3l0.2-855.3c0.1-28.3,23.1-51.2,51.4-51.2l47,0
				c4.9,0,9.3,3.1,10.9,7.7l10.8,29.8c1.7,4.6,6,7.7,10.9,7.7l223.6,0.1c4.2,0,8.2-2.3,10.2-6l12.8-31.5c1.9-4.5,6.3-7.5,11.2-7.5
				l44,0c28.3,0,51.3,22.9,51.4,51.3L842.1,1027.7z"/>
		</g>
	</g>
	<g>
		<path d="M512.3,626l-5.2-17h-26l-5.2,17h-16.3l25.2-71.7h18.5l25.3,71.7H512.3z M503.5,596.3c-4.8-15.4-7.5-24.1-8.1-26.1
			c-0.6-2-1-3.6-1.3-4.8c-1.1,4.2-4.2,14.5-9.2,30.9H503.5z"/>
		<path d="M566.4,627c-6.4,0-11.4-2.3-15.1-7h-0.8c0.5,4.6,0.8,7.2,0.8,7.9V650h-14.9v-78.6h12.1l2.1,7.1h0.7
			c3.5-5.4,8.6-8.1,15.5-8.1c6.4,0,11.5,2.5,15.1,7.5c3.6,5,5.5,11.9,5.5,20.8c0,5.8-0.9,10.9-2.6,15.2s-4.1,7.6-7.3,9.8
			C574.3,625.8,570.6,627,566.4,627z M562,582.3c-3.7,0-6.4,1.1-8.1,3.4c-1.7,2.3-2.6,6-2.6,11.2v1.6c0,5.9,0.9,10.1,2.6,12.6
			c1.7,2.5,4.5,3.8,8.3,3.8c6.7,0,10-5.5,10-16.5c0-5.4-0.8-9.4-2.5-12.1C568.1,583.6,565.5,582.3,562,582.3z"/>
		<path d="M629.6,627c-6.4,0-11.4-2.3-15.1-7h-0.8c0.5,4.6,0.8,7.2,0.8,7.9V650h-14.9v-78.6h12.1l2.1,7.1h0.7
			c3.5-5.4,8.6-8.1,15.5-8.1c6.4,0,11.5,2.5,15.1,7.5c3.6,5,5.5,11.9,5.5,20.8c0,5.8-0.9,10.9-2.6,15.2s-4.1,7.6-7.3,9.8
			C637.6,625.8,633.9,627,629.6,627z M625.2,582.3c-3.7,0-6.4,1.1-8.1,3.4c-1.7,2.3-2.6,6-2.6,11.2v1.6c0,5.9,0.9,10.1,2.6,12.6
			c1.7,2.5,4.5,3.8,8.3,3.8c6.7,0,10-5.5,10-16.5c0-5.4-0.8-9.4-2.5-12.1C631.3,583.6,628.8,582.3,625.2,582.3z"/>
		<path d="M677.8,626h-14.9v-76h14.9V626z"/>
		<path d="M718.2,627c-8.8,0-15.7-2.4-20.6-7.3c-4.9-4.9-7.4-11.7-7.4-20.6c0-9.1,2.3-16.2,6.9-21.2c4.6-5,10.9-7.5,19-7.5
			c7.7,0,13.7,2.2,18,6.6s6.4,10.5,6.4,18.2v7.2h-35.2c0.2,4.2,1.4,7.5,3.8,9.9c2.3,2.4,5.6,3.6,9.9,3.6c3.3,0,6.4-0.3,9.3-1
			s6-1.8,9.2-3.3v11.5c-2.6,1.3-5.4,2.3-8.3,2.9C726,626.6,722.4,627,718.2,627z M716.1,581c-3.2,0-5.6,1-7.4,3
			c-1.8,2-2.8,4.8-3.1,8.5h20.9c-0.1-3.7-1-6.5-2.9-8.5S719.2,581,716.1,581z"/>
	</g>
</g>
<g id="Calque_2">
</g>
</svg>
