<svg id="Calque_1" data-name="Calque 1" xmlns="http://www.w3.org/2000/svg" xmlns:xlink="http://www.w3.org/1999/xlink" viewBox="0 0 1200 1200"><defs><style>.cls-1{fill:url(#degradé_écran);}.cls-2{fill:#444644;}.cls-3{fill:#002f87;}</style><linearGradient id="degradé_écran" x1="259.86" y1="259.86" x2="940.14" y2="940.14" gradientUnits="userSpaceOnUse"><stop offset="0" stop-color="#fff"/><stop offset="0.4" stop-color="#fbfbfb"/><stop offset="0.81" stop-color="#eee"/><stop offset="1" stop-color="#e6e6e6"/></linearGradient></defs><title>picto_logo-telephone</title><path class="cls-1" d="M836,186.43C835.93,147.51,806.71,116,770.7,116H429.28c-36,0-65.21,31.51-65.28,70.43v827.14c.07,38.92,29.29,70.43,65.28,70.43H770.72c36,0,65.22-31.51,65.28-70.43V186.43Z"/><path class="cls-2" d="M849.25,191.29A92.29,92.29,0,0,0,757,99H443a92.29,92.29,0,0,0-92.29,92.29v817.42A92.29,92.29,0,0,0,443,1101H756.56a92.29,92.29,0,0,0,92.29-92.29ZM703.1,147a4.67,4.67,0,1,1-.41-.38h.41Zm-256.28-5a11.32,11.32,0,0,1,11.32,11.64,11.46,11.46,0,0,1-11,11,11.33,11.33,0,0,1-11.64-11.32h0A11.32,11.32,0,0,1,446.82,142.06Zm105.33,6h97a5,5,0,0,1,0,9.89h-96.9a4.95,4.95,0,0,1,0-9.89h-.13ZM829,969.41c-130.94.06-246.67,2-458.77-.06V200.1c222.05-.56,253.88-.56,458.55,0v-1.95Z"/><path class="cls-3" d="M787.45,570.05a8.29,8.29,0,1,1,16.58,0,8.3,8.3,0,0,1-8.24,8.31A8.33,8.33,0,0,1,787.45,570.05Zm-.71,0a9,9,0,0,0,9,9,9,9,0,0,0,0-18.05A9,9,0,0,0,786.74,570.05Zm5.67,5.31h1.26v-4.19h2.86a2.65,2.65,0,0,1,1.12.16,1.42,1.42,0,0,1,.66,1.31l.12,1.64c0,.37,0,.63,0,.76a1.31,1.31,0,0,1,.12.32h1.6v-.23c-.21-.07-.3-.28-.42-.59a2.86,2.86,0,0,1-.08-.83l0-1.31a2.25,2.25,0,0,0-.29-1.23,2.06,2.06,0,0,0-.88-.62,2.34,2.34,0,0,0,1.36-2.33,2.34,2.34,0,0,0-1.32-2.32,4.18,4.18,0,0,0-1.77-.32h-4.3Zm1.26-5.31V566.7h3a2.58,2.58,0,0,1,1.07.2,1.54,1.54,0,0,1,.71,1.42,1.58,1.58,0,0,1-.53,1.37,2.28,2.28,0,0,1-1.38.36ZM432.32,582.47l-37.1,57.44h25.36L456.24,585Zm152.56-1.29V559.9H512.79c-9.81.61-14.1,5.23-17.31,8.57-3.43,3.54-5.38,11-5.38,11V560H451.83a9.27,9.27,0,0,0-7.72,4.06c-2.17,2.81-10.93,17.08-10.93,17.08Zm196,0V559.9H703.78c-9.78.61-14.09,5.23-17.31,8.57-3.43,3.54-5.36,11-5.36,11v1.71ZM610.2,560H588.64v21.18H610.2ZM681,560H659.42v21.18H681Zm0,28.83-21.17-1.25v24.57s-.07,7.08-7,7.08H616.4a6.77,6.77,0,0,1-6.16-7v-28l-21.38-1.53V620.4c3.46,18.08,19.95,19.47,19.95,19.47s1.68.11,2,.14h49.16s21-1.68,21-21.66ZM468.22,639.92H569c17.56-3.49,19.39-19.26,19.39-19.26a31.09,31.09,0,0,0,.34-8.48c-.52-3.16-6.59-17.11-19.77-18.33-7.86-.72-77.8-6.22-77.8-6.22a21.86,21.86,0,0,0,6.6,12.44c4.86,4.61,12.58,5.92,12.58,5.92,1.87.18,53.9,4.44,53.9,4.44,1.66.08,4.8.5,4.77,4.57a4.24,4.24,0,0,1-4.45,4.08H489.18V587.46l-21-1.52Zm212.89.18h77.13c19.35-1.1,22.08-19.26,22.08-19.26a33.38,33.38,0,0,0,.12-8.66c-.55-4.3-6.73-17.21-19.93-18.47-7.81-.72-78.15-4.82-78.15-4.82,2.09,7.15,4.88,9.32,7,11.3,4.86,4.63,12.16,5.75,12.16,5.75,1.83.14,54.45,4.49,54.45,4.49,1.69.08,5.08.26,5.08,4.32a4.56,4.56,0,0,1-1.41,3.19,9,9,0,0,1-3.59,1H681.16Z"/></svg>