<svg id="Calque_1" data-name="Calque 1" xmlns="http://www.w3.org/2000/svg" xmlns:xlink="http://www.w3.org/1999/xlink" viewBox="0 0 1200 1200"><defs><style>.cls-1{fill:url(#degradé_écran);}.cls-2{fill:#016bb5;}.cls-3{fill:#444644;}</style><linearGradient id="degradé_écran" x1="250.91" y1="257.93" x2="946.07" y2="953.08" gradientUnits="userSpaceOnUse"><stop offset="0" stop-color="#fff"/><stop offset="0.4" stop-color="#fbfbfb"/><stop offset="0.81" stop-color="#eee"/><stop offset="1" stop-color="#e6e6e6"/></linearGradient></defs><title>picto</title><path class="cls-1" d="M845,187.23C844.91,147.87,814.4,116,776.79,116H420.18c-37.6,0-68.11,31.87-68.19,71.23v836.54c.08,39.36,30.59,71.23,68.19,71.23H776.8c37.61,0,68.12-31.87,68.19-71.23V187.23Z"/><path class="cls-2" d="M519,567.58h41c1.91.07,3.82.23,5.73.43,3.68.43,7.45,1.29,10.49,3.5a14.57,14.57,0,0,1,5.52,8c1.1,4.32.88,8.82.91,13.24,0,6.9,0,13.8,0,20.7-.05,3.67-.2,7.46-1.62,10.89a15.16,15.16,0,0,1-8.87,8c-4.34,1.5-9,1.68-13.54,1.86q-15.69,0-31.36,0c-3.56,0-7.13.08-10.68-.17-3.87-.28-7.85-.67-11.42-2.31a15.09,15.09,0,0,1-7.22-7.08,23.47,23.47,0,0,1-1.71-8.65c-.09-4.41,0-8.82-.05-13.23,0-5.55,0-11.11,0-16.67a25.58,25.58,0,0,1,1.46-8.45,15.07,15.07,0,0,1,8.83-8.24C510.47,568,514.76,567.77,519,567.58Zm1.46,16.5a6.84,6.84,0,0,0-4.19,1.13c-1.48,1.29-1.35,3.43-1.48,5.22q0,8.54,0,17.07a43.27,43.27,0,0,0,.28,6.83,3.74,3.74,0,0,0,1.29,2.32,6,6,0,0,0,3.19,1c1.07.05,2.14.17,3.22.14h34.36a14.69,14.69,0,0,0,4.53-.64,3.53,3.53,0,0,0,2.06-2.57,32.21,32.21,0,0,0,.31-6.21c0-6.12,0-12.24,0-18.36-.13-1.44-.08-3-1-4.25a4.38,4.38,0,0,0-3.15-1.55c-2.7-.3-5.41-.19-8.11-.22-9.18,0-18.36,0-27.54,0A37.26,37.26,0,0,0,520.42,584.08Z"/><path class="cls-2" d="M395.3,568.61h34.13q19.47,24.15,39,48.23c0-16.08,0-32.16,0-48.24h19.78q0,32.42,0,64.82H454.83q-19.9-24.49-39.75-49c-.05,16.34,0,32.68,0,49-6.59,0-13.17,0-19.76,0Z"/><path class="cls-2" d="M590.52,568.6c6.89,0,13.77,0,20.66,0,0,10.28,0,20.56,0,30.83a18.93,18.93,0,0,0,2.17-1.83c10.9-9.66,21.75-19.37,32.65-29,6.29,0,12.58,0,18.86,0,2.78,0,5.56-.07,8.33.06q-18.33,15.15-36.68,30.26,20.7,17.24,41.41,34.47c-9.47,0-18.95,0-28.43,0-.38,0-.8.05-1.06-.28L619.3,607c-2.72-2.38-5.34-4.87-8.1-7.2,0,11.21,0,22.43,0,33.65H590.52Q590.51,601,590.52,568.6Z"/><path class="cls-2" d="M681.64,568.61H702.3q0,32.4,0,64.8H681.65Q681.64,601,681.64,568.61Z"/><path class="cls-2" d="M742.54,568.66c8.54-.11,17.1,0,25.65,0q12.52,22.27,25.12,44.53c3.79,6.76,7.65,13.48,11.39,20.26H780.76c-2-3.75-4-7.53-6.11-11.28q-19.9,0-39.81,0c-2,3.75-4,7.54-6.06,11.29-7.58,0-15.17,0-22.76,0,4.16-7.58,8.5-15.07,12.72-22.63C726.69,596.75,734.55,582.67,742.54,568.66ZM742.08,608q12.7,0,25.42,0c-4.23-7.77-8.45-15.55-12.74-23.29C750.58,592.49,746.25,600.2,742.08,608Z"/><path class="cls-3" d="M800.22,80h-404a44.13,44.13,0,0,0-43.89,43.89v920.22A44.13,44.13,0,0,0,396.22,1088h404a44.11,44.11,0,0,0,43.88-43.89V123.89A44.11,44.11,0,0,0,800.22,80ZM680,131.85a2.46,2.46,0,1,1-2.46,2.45h0A2.46,2.46,0,0,1,680,131.85Zm-117-2.11a5.46,5.46,0,0,1,3.86-1.64h63.44a5.5,5.5,0,0,1,0,11h-63.2a5.49,5.49,0,0,1-3.86-9.36Zm-57.69-7.61a11.71,11.71,0,1,1-11.71,11.7,11.7,11.7,0,0,1,11.71-11.7h0Zm140,908.88a9.72,9.72,0,0,1-9.6,9.59H563.34a9.7,9.7,0,0,1-9.59-9.59v-10.07a9.72,9.72,0,0,1,9.59-9.6h72.21a9.72,9.72,0,0,1,9.6,9.6Zm178.24-63.67a2.46,2.46,0,0,1-2.46,2.46H375.51a2.46,2.46,0,0,1-2.46-2.46V178.89a2.46,2.46,0,0,1,2.46-2.46H820.93a2.46,2.46,0,0,1,2.46,2.46Z"/></svg>