<svg id="Calque_1" data-name="Calque 1" xmlns="http://www.w3.org/2000/svg" xmlns:xlink="http://www.w3.org/1999/xlink" viewBox="0 0 1200 1200"><defs><style>.cls-1{fill:url(#degradé_écran);}.cls-2{fill:#444644;}.cls-3{fill:#0059a2;fill-rule:evenodd;}</style><linearGradient id="degradé_écran" x1="257.09" y1="257.66" x2="936.78" y2="937.35" gradientUnits="userSpaceOnUse"><stop offset="0" stop-color="#fff"/><stop offset="0.4" stop-color="#fbfbfb"/><stop offset="0.81" stop-color="#eee"/><stop offset="1" stop-color="#e6e6e6"/></linearGradient></defs><title>picto</title><path class="cls-1" d="M817.93,172.4c-.06-40-27.42-72.4-61.14-72.4H437.07c-33.71,0-61.07,32.39-61.13,72.4v850.2c.06,40,27.42,72.4,61.13,72.4H756.8c33.72,0,61.08-32.39,61.14-72.4V172.4Z"/><path class="cls-2" d="M436.26,100.16a62.24,62.24,0,0,0-62.37,62.38v873.27a62.24,62.24,0,0,0,62.37,62.37H763.74a62.24,62.24,0,0,0,62.37-62.37V162.54a62.24,62.24,0,0,0-62.37-62.38Zm136.45,19.49h54.58a3.9,3.9,0,1,1,0,7.8H572.71a3.9,3.9,0,0,1,0-7.8ZM412.87,146.94H787.13a31.12,31.12,0,0,1,31.19,31.19v842.08a31.12,31.12,0,0,1-31.19,31.19H412.87a31.12,31.12,0,0,1-31.19-31.19V178.13A31.12,31.12,0,0,1,412.87,146.94Z"/><path class="cls-3" d="M622.2,596.77a51.59,51.59,0,0,0-6.71-3.85s-7.91-4-9.48-5.91c0,0-3.09-3.17-1.29-6.83a4,4,0,0,1,4-2.41s4.24.27,4.24,4.06v5.36h15.23l0-7.9s1.17-12.91-17.92-13.47c0,0-15-1.07-19.33,7.72,0,0-1.69,2-1.69,8.79v4.93s-.16,5.72,2.51,9.38a20.76,20.76,0,0,0,5.24,5.07s7.55,4.42,12.09,7c0,0,4.6,2.85,4,7.37,0,0-.36,4.65-4.78,4.46a4.41,4.41,0,0,1-4-4.77v-5.35H588v7.78S587.56,633,608.4,633c0,0,19.9.43,20.83-15.25v-6.34s.7-9.6-7-14.67Z"/><polygon class="cls-3" points="550.8 567.67 545.7 602.39 544.51 602.39 539.64 567.98 514.23 567.98 512.95 630.84 528 630.84 528.17 583.49 529.36 583.49 537.34 630.84 553.17 630.84 561.06 583.51 562.11 583.51 562.46 630.84 577.6 630.84 575.97 567.67 550.8 567.67 550.8 567.67"/><polygon class="cls-3" points="464.47 567.94 454.45 630.78 470.65 630.78 476.58 582.06 477.91 582.06 483.85 630.78 500.05 630.78 490.02 567.94 464.47 567.94 464.47 567.94"/><path class="cls-3" d="M778.4,595.92v9.26h4.15v10c0,4.85-3.82,5-3.82,5-4.66,0-4.49-4.61-4.49-4.61V581c0-3.55,4.14-3.74,4.14-3.74,4,0,4,4.23,4,4.23v5.24h15.26c.5-10.21-1.36-12.7-1.36-12.7-3.79-9.24-18.11-8.75-18.11-8.75-22,0-19.57,18.37-19.57,18.37V617c.47,17.19,22.16,15.45,22.52,15.45,9.66-1.18,12.56-4.52,12.56-4.52a10.22,10.22,0,0,0,3.36-5.14c.77-1.77,1-7.31,1-7.31V595.92Z"/><polygon class="cls-3" points="731.08 606.13 730.42 606.13 714.93 567.67 696.41 567.67 696.41 630.86 711.5 630.86 710.59 592.42 711.25 592.42 727.29 630.86 745.26 630.86 745.26 567.67 730 567.67 731.08 606.13 731.08 606.13"/><path class="cls-3" d="M666.13,615.13s.23,5.17-4.21,5.17c0,0-4.64.29-4.64-5.06l-.06-47.53H640.69v47.15s-1.69,17.86,21.46,17.86c0,0,20.14.25,20.14-17v-48H666.13v47.42Z"/><path class="cls-3" d="M436.2,596.77a51.59,51.59,0,0,0-6.71-3.85s-7.9-4-9.48-5.91c0,0-3.09-3.17-1.27-6.83,0,0,.75-2.41,4-2.41,0,0,4.24.27,4.24,4.06v5.36h15.22l0-7.9s1.17-12.91-17.93-13.47a32.31,32.31,0,0,0-3.55,0s-11.55.67-15.69,7.58c0,0,0,.07-.09.13s-1.68,2-1.68,8.79v4.93s-.17,5.7,2.5,9.38a20.76,20.76,0,0,0,5.24,5.07s7.56,4.42,12.11,7c0,0,4.58,2.85,4,7.37,0,0-.39,4.65-4.81,4.46a4.41,4.41,0,0,1-4-4.77v-5.35H402v7.78S401.56,633,422.41,633c0,0,19.9.43,20.82-15.25v-6.34s.7-9.6-7-14.67Z"/></svg>