<svg id="Calque_1" data-name="Calque 1" xmlns="http://www.w3.org/2000/svg" xmlns:xlink="http://www.w3.org/1999/xlink" viewBox="0 0 1200 1200"><defs><style>.cls-1{fill:url(#degradé_écran);}.cls-2{fill:#444644;}</style><linearGradient id="degradé_écran" x1="268.89" y1="274.22" x2="934.46" y2="939.78" gradientUnits="userSpaceOnUse"><stop offset="0" stop-color="#fff"/><stop offset="0.4" stop-color="#fbfbfb"/><stop offset="0.81" stop-color="#eee"/><stop offset="1" stop-color="#e6e6e6"/></linearGradient></defs><title>picto</title><path class="cls-1" d="M834.16,203.69c-.06-38-28.84-68.69-64.31-68.69H433.49c-35.47,0-64.24,30.73-64.32,68.69v806.62c.08,38,28.85,68.69,64.32,68.69H769.86c35.47,0,64.25-30.73,64.31-68.69V203.69Z"/><path d="M547.27,567.55c-12.62,0-26,4.33-33.61,11.25a28,28,0,0,0-9.14,20.77,27.48,27.48,0,0,0,9.14,20.79c8.16,7.35,20.41,11.3,33.61,11.3s25.73-3.9,33.69-11.3a28.85,28.85,0,0,0,9-20.79,27.7,27.7,0,0,0-9-20.75c-8.55-7.76-19.72-11.27-33.69-11.27m18,48.74a25.42,25.42,0,0,1-18,6.92c-7,0-13.59-2.47-18.06-6.92a24.55,24.55,0,0,1,0-33.5c4.47-4.42,11.12-6.89,18.06-6.89a25.9,25.9,0,0,1,18,6.89,23.31,23.31,0,0,1,6.59,16.78c0,6.71-2.08,12.23-6.59,16.72"/><path d="M480.86,595.87a45.17,45.17,0,0,0-7.07-2.49c-4.6-1.11-15-2.5-19.94-3-5.2-.54-14.22-1.28-17.82-2.41a4.26,4.26,0,0,1-3.31-4q0-2.76,3-4.67c3.21-2,9.66-3.23,16.4-3.23a47.5,47.5,0,0,1,19,3.71,20.91,20.91,0,0,1,4.51,2.69,13.62,13.62,0,0,1,4.46,7.44h7.17V570.38h-8v2.28c0,.73-.76,1.67-2.2.88a61,61,0,0,0-26.19-6A55.23,55.23,0,0,0,429,572c-6.27,2.8-11.43,7.33-11.43,14.87a15.43,15.43,0,0,0,4.19,10.62c1.84,1.68,4.78,4.57,12.48,6.24,3.44.76,10.82,1.91,18.14,2.68s14.46,1.49,17.37,2.24c2.32.6,6.21,1.4,6.21,5.76s-4.09,5.67-4.82,6-5.63,2.53-14.48,2.53a61.6,61.6,0,0,1-17.24-3,20.71,20.71,0,0,1-10-6.68,11.51,11.51,0,0,1-2.07-6.33h-8v22.45h8.91v-3a1.27,1.27,0,0,1,1.92-1.09,70.7,70.7,0,0,0,13,4.22,55.5,55.5,0,0,0,13.51,1.67,57.86,57.86,0,0,0,18.12-2.56,31.74,31.74,0,0,0,10.75-5.31,14.76,14.76,0,0,0,5.75-11.82,16.58,16.58,0,0,0-4.66-11.61,20.3,20.3,0,0,0-5.76-3.91"/><path d="M654.14,578.25h7.36c3.39,0,4,1.31,4,4.43l.39,23.79-39.15-35.34h-28v7.13H605c4.51,0,4.81,2.54,4.81,4.69v33.34c0,2,.11,4.73-2.76,4.73h-7.7v7.12h32.88V621h-8c-3.19,0-3.34-1.47-3.39-4.58V587.9l45.1,40.24h11.47l-.6-45.46c0-3.32.25-4.43,3.69-4.43h7.19v-7.11H654.14Z"/><path d="M748.66,620.89l-1.55-1.39L747,618V606.73l.26-1C747.76,605,768,582,768.89,581c2-2.22,3-2.69,5.62-2.69h7.19v-7.13H749.53v7.13h4.85a1.36,1.36,0,0,1,1.17,2.19l-13.64,16-.39-.05-13.35-16c-.94-1.15-.21-2.18.89-2.18h4.73v-7.12H694.52v7.13h7a8.28,8.28,0,0,1,6.17,3.15c.91,1,20.9,23.67,21.42,24.33l.48,1V618l-.16,1.53-1.53,1.39-2,.12h-7v7.12H758V621h-7.34Z"/><path d="M778.52,624.9l-.06-1.71c-.07-1.33-.61-1.56-1.14-1.78a2.35,2.35,0,0,0,1.31-2.27c0-2-1.57-2.56-3.11-2.56h-4.38v9.48h1.29V622h3.09c1.54,0,1.69.91,1.69,1.68l.23,2.38H779v-.2Zm-3.13-4h-3v-3.23h3.18c.63,0,1.71.12,1.71,1.6s-1,1.63-1.93,1.63"/><path d="M774.77,613.71a7.71,7.71,0,1,0,7.71,7.7,7.72,7.72,0,0,0-7.71-7.7m0,14.52a6.83,6.83,0,1,1,6.82-6.82,6.84,6.84,0,0,1-6.82,6.82"/><path class="cls-2" d="M801.66,108.7c-105.32-1.64-291.73-1.76-403.06,0a48.11,48.11,0,0,0-47.36,48.17v901.35a48.11,48.11,0,0,0,47.4,48.17c94.76,1.37,307.09.06,402.27-.64a48.12,48.12,0,0,0,47.76-48.16L849,156.89A48.12,48.12,0,0,0,801.66,108.7ZM688,167.28h17.82a6,6,0,1,1,0,12H688a6,6,0,1,1,0-12Zm-113.46-16h56.25a6,6,0,0,1,0,12H574.53a6,6,0,1,1,0-12ZM506,158.85a13.37,13.37,0,1,1-13.37,13.37v-.12a13.37,13.37,0,0,1,13.13-13.25Zm129.6,908.48a4.1,4.1,0,0,1-4.1,4.09h-57a4.09,4.09,0,0,1-4.09-4.09h0a4.22,4.22,0,0,1,4.09-4.22h56.85a4.23,4.23,0,0,1,4.1,4.22Zm185.64-63.84H378V217.38H821.24Z"/></svg>