<svg id="Calque_1" data-name="Calque 1" xmlns="http://www.w3.org/2000/svg" xmlns:xlink="http://www.w3.org/1999/xlink" viewBox="0 0 1200 1200"><defs><style>.cls-1{fill:url(#degradé_écran);}.cls-2{fill:#444644;}.cls-3{fill:#00a39b;}.cls-4{fill:#121212;}</style><linearGradient id="degradé_écran" x1="248.59" y1="242.44" x2="945.65" y2="939.5" gradientUnits="userSpaceOnUse"><stop offset="0" stop-color="#fff"/><stop offset="0.4" stop-color="#fbfbfb"/><stop offset="0.81" stop-color="#eee"/><stop offset="1" stop-color="#e6e6e6"/></linearGradient></defs><title>picto_logo-telephone</title><rect class="cls-1" x="352.59" y="117.93" width="489.05" height="946.07" rx="35" ry="35"/><path class="cls-2" d="M853.6,357.86V237.31a3.44,3.44,0,0,0-3.09-3.32V141.48a44.08,44.08,0,0,0-44.08-44.07H389.37a44.07,44.07,0,0,0-44.08,44.07h0v910.84a44.08,44.08,0,0,0,44,44.19H806.43a44.19,44.19,0,0,0,44.19-44.19h0V472.11a3.42,3.42,0,0,0,3.09-3.43v-56a3.43,3.43,0,0,0-3.09-3.32V361.29A3.43,3.43,0,0,0,853.6,357.86ZM687.09,129.1a12.1,12.1,0,0,1,12.24,12.31,12.24,12.24,0,0,1-11.62,11.9,12.11,12.11,0,0,1-12.59-12v-.14A12,12,0,0,1,687,129.1ZM566,136.79h67.1a5.18,5.18,0,0,1,5.23,4.54,5,5,0,0,1-5,5.54h-67.1a5.19,5.19,0,0,1-5.23-4.55A5,5,0,0,1,566,136.79Zm-57.65-4.69a8.8,8.8,0,0,1,8.81,8.81V141a8.69,8.69,0,0,1-8.58,8.81h-.23a8.81,8.81,0,0,1-8.93-8.7V141A8.93,8.93,0,0,1,508.36,132.1Zm310.66,910H379a15,15,0,0,1-15-15V187.51a15,15,0,0,1,15-15H819a15,15,0,0,1,15,15v839.61A15,15,0,0,1,819,1042.12Z"/><path class="cls-3" d="M707.61,608.36c-.38-.6-.82-1.21-1.28-1.82-1.33-1.78-2.7-3.61-2.7-6.32,0-4.08,4.16-8.82,9-14.3,1.61-1.81,3.28-3.72,4.9-5.72.3-.34.6-.68.91-1,1.31-1.49,2.69-3,2.69-5.08a3.87,3.87,0,0,0-1.09-2.89,4.83,4.83,0,0,0-3.35-1.25c-4.75,0-6.37,1.62-13.18,8.48,0,0-5.61,5.93-6.94,7.55-3.55,4.29-6.62,8-11.9,8-4.16,0-6.77-6.81-6.77-17.78v-23.9c0-6.84-4-8.27-7.34-8.27-4.52,0-6.12,4.27-6.12,8.27V631.1c0,8.37,4,10.12,7.34,10.12,3.12,0,6.44-2.82,6.44-10.72,0-15.74,4.09-19,10.26-19,4.43,0,8.86,5.92,12.66,11.49l3.88,5.72c2.09,3.15,8.45,12.75,17.64,12.75a3.77,3.77,0,0,0,3.56-1.68c.92-1.59.48-4-1.29-7.12Z"/><path class="cls-3" d="M762.31,577.58c-20,0-32.51,13.87-32.51,32.1,0,19.77,12.53,31.83,32.51,31.83,20.32,0,32.51-12,32.51-31.83C794.82,591.45,782.58,577.58,762.31,577.58Zm0,53.26c-9,0-18-7.05-18-21.16,0-12.58,9.16-21.43,18-21.43,9.25,0,18,8.78,18,21.43C780.33,624,771.5,630.84,762.31,630.84Z"/><path class="cls-3" d="M622.17,475.53c-32.07,0-25.34,25.15-33.21,73.39-2.25,13.8-4.42,51.4-20.36,51.4-15.57,0-25.68-20.84-32.42-41.25C527,531.2,525,507.55,507.28,507.55c-23.5,0-24.07,28.76-25.58,51.52-3.76,33.94-10.49,41.23-17.35,41.23-8.78,0-14-17-18.51-36.82s-4.39-37.23-20.37-35.32c-10.31,1.39-26.92,8.14-17.5,26.75,10.94,21.59,28.51,86.6,58.71,86.6,31.44,0,30.87-62,43.26-62,13.47,0,29.76,62,61.26,62,9.93,0,24.76,1.32,36.25-45.43,12.71-51.56,17-71,26.39-91.62C638.72,493.72,635.8,475.53,622.17,475.53Z"/><path class="cls-3" d="M639.43,574.36c-5.21,0-6.75,3.5-6.75,10.52v41.46c0,13.43.92,15.17,7.68,15.17,4.28,0,6.42-3.5,6.42-10.22V590.13C646.78,577.57,646.78,574.36,639.43,574.36Z"/><path class="cls-3" d="M639.66,550.87c-4,0-7.43,1.47-7.43,6.74,0,3.59,1.9,6.35,7.43,6.35,4.17,0,7.57-1.48,7.57-6.76C647.23,553.62,645.16,550.87,639.66,550.87Z"/><path class="cls-4" d="M594.37,689a9,9,0,0,1-6.85,2.75,8.92,8.92,0,0,1-6.52-2.65c-2.45-2.45-2.39-5.48-2.39-9.67s-.06-7.21,2.39-9.66a9.28,9.28,0,0,1,15.65,5.1h-4.76a4.12,4.12,0,0,0-4.37-3.53,3.94,3.94,0,0,0-3,1.29c-.92,1-1.15,2.14-1.15,6.8s.23,5.83,1.15,6.85a3.92,3.92,0,0,0,3,1.26,4.48,4.48,0,0,0,3.38-1.37,4.64,4.64,0,0,0,1.09-3.23V682h-4.47v-4h9.17v3.54C596.69,685.11,596.07,687.22,594.37,689Z"/><path class="cls-4" d="M609.56,691.53V690a5.4,5.4,0,0,1-4.36,1.7,6,6,0,0,1-4.52-1.56,5.65,5.65,0,0,1-1.46-4c0-2.82,1.93-5.13,6-5.13h4.19v-.89c0-1.95-1-2.79-3.3-2.79a3.83,3.83,0,0,0-3.41,1.46l-2.82-2.75c1.74-1.91,3.44-2.46,6.4-2.46,5,0,7.55,2.11,7.55,6.27v11.66Zm-.1-7.48H606c-1.6,0-2.48.76-2.48,2s.81,2,2.54,2a3.51,3.51,0,0,0,2.8-.85,2.89,2.89,0,0,0,.65-2.24Z"/><path class="cls-4" d="M638.59,691.53V680.82c0-2.42-1.52-3.23-2.91-3.23a2.85,2.85,0,0,0-3,3.13v10.81h-4.42V680.82c0-2.42-1.53-3.23-2.93-3.23s-3,.81-3,3.23v10.71H618V673.81h4.33v1.64a6.16,6.16,0,0,1,4.42-1.85,5.48,5.48,0,0,1,4.69,2.25,6.81,6.81,0,0,1,5.32-2.25,6.18,6.18,0,0,1,4.35,1.57,6.67,6.67,0,0,1,1.94,5v11.33Z"/><path class="cls-4" d="M650.6,684.05a3.66,3.66,0,0,0,3.87,4,4.94,4.94,0,0,0,4-1.67l2.69,2.62a8.43,8.43,0,0,1-6.74,2.79c-4.19,0-8.21-1.9-8.21-9.08,0-5.78,3.13-9.06,7.73-9.06,4.94,0,7.73,3.61,7.73,8.49v2Zm6.33-4.93a3.31,3.31,0,0,0-5.93,0,4.9,4.9,0,0,0-.4,1.91h6.73A5.08,5.08,0,0,0,656.93,679.12Z"/><path class="cls-4" d="M679.36,691.74c-3.53,0-7.93-1.9-7.93-9.08s4.4-9.06,7.93-9.06a7.57,7.57,0,0,1,5.85,2.39l-3,3a3.58,3.58,0,0,0-2.87-1.4,3.07,3.07,0,0,0-2.52,1.15,6.06,6.06,0,0,0-1,3.92,6.17,6.17,0,0,0,1,4,3.08,3.08,0,0,0,2.52,1.16,3.64,3.64,0,0,0,2.87-1.4l3,3A7.56,7.56,0,0,1,679.36,691.74Z"/><path class="cls-4" d="M698.16,691.53V680.72a2.78,2.78,0,0,0-2.91-3.13c-1.39,0-2.85.81-2.85,3.13v10.81H688V667.31h4.42v8.14a5.86,5.86,0,0,1,4.26-1.85c3.88,0,5.92,2.73,5.92,6.47v11.46Z"/><path class="cls-4" d="M715.76,691.53V690a5.39,5.39,0,0,1-4.36,1.7,6.09,6.09,0,0,1-4.53-1.56,5.74,5.74,0,0,1-1.46-4c0-2.82,1.94-5.13,6.06-5.13h4.19v-.89c0-1.95-.95-2.79-3.3-2.79a3.82,3.82,0,0,0-3.41,1.46l-2.82-2.75c1.74-1.91,3.44-2.46,6.4-2.46,5,0,7.55,2.11,7.55,6.27v11.66Zm-.1-7.48h-3.51c-1.59,0-2.48.76-2.48,2s.81,2,2.55,2a3.49,3.49,0,0,0,2.79-.85,2.93,2.93,0,0,0,.65-2.24Z"/><path class="cls-4" d="M734.49,691.53V680.82c0-2.42-1.54-3.23-2.93-3.23s-3,.81-3,3.23v10.71h-4.42V673.81h4.31v1.64a6.1,6.1,0,0,1,4.43-1.85,5.78,5.78,0,0,1,4.19,1.57,6.59,6.59,0,0,1,1.8,5v11.33Z"/><path class="cls-4" d="M749.13,698.25a8.3,8.3,0,0,1-6.43-2.32l2.76-2.79a4.47,4.47,0,0,0,3.46,1.37,3.36,3.36,0,0,0,3.58-3.69V689a5.21,5.21,0,0,1-4.22,1.77,6,6,0,0,1-4.23-1.56c-1.66-1.67-1.8-3.94-1.8-7s.14-5.35,1.8-7a6,6,0,0,1,4.26-1.57,5.18,5.18,0,0,1,4.32,1.88v-1.67h4.29V690.9C756.92,695.14,753.89,698.25,749.13,698.25Zm.44-20.66c-2.62,0-2.88,2.24-2.88,4.6s.26,4.62,2.88,4.62,2.93-2.29,2.93-4.62S752.19,677.59,749.57,677.59Z"/><path class="cls-4" d="M764.69,684.05a3.67,3.67,0,0,0,3.88,4,4.91,4.91,0,0,0,4-1.67l2.69,2.62a8.42,8.42,0,0,1-6.74,2.79c-4.19,0-8.21-1.9-8.21-9.08,0-5.78,3.14-9.06,7.74-9.06,4.93,0,7.72,3.61,7.72,8.49v2Zm6.33-4.93a3.29,3.29,0,0,0-5.91,0,4.91,4.91,0,0,0-.42,1.91h6.75A5.09,5.09,0,0,0,771,679.12Z"/><path class="cls-4" d="M788.83,678.65a3,3,0,0,0-5.2,2.2v10.68h-4.44V673.81h4.33v1.7A6,6,0,0,1,788,673.6a5.37,5.37,0,0,1,4.19,1.68Z"/><path class="cls-4" d="M789.75,691.53v-5h5.07v5Z"/></svg>