<?xml version="1.0" encoding="utf-8"?>
<!-- Generator: Adobe Illustrator 24.3.0, SVG Export Plug-In . SVG Version: 6.00 Build 0)  -->
<svg version="1.1" id="Calque_1" xmlns="http://www.w3.org/2000/svg" xmlns:xlink="http://www.w3.org/1999/xlink" x="0px" y="0px"
	 viewBox="0 0 1200 1200" style="enable-background:new 0 0 1200 1200;" xml:space="preserve">
<style type="text/css">
	.st0{fill:url(#SVGID_1_);}
	.st1{fill:#444644;}
	.st2{fill-rule:evenodd;clip-rule:evenodd;fill:#FF6709;}
	.st3{fill:#FFFFFF;}
</style>
<g id="Calque_1_1_">
	<g>
		<g>
			
				<linearGradient id="SVGID_1_" gradientUnits="userSpaceOnUse" x1="195.3335" y1="970.8555" x2="931.5852" y2="234.6039" gradientTransform="matrix(0.8743 2.125318e-04 2.430628e-04 -1 106.8922 1201.2278)">
				<stop  offset="1.603691e-06" style="stop-color:#FFFFFF"/>
				<stop  offset="0.3971" style="stop-color:#FBFBFB"/>
				<stop  offset="0.8132" style="stop-color:#EEEEEE"/>
				<stop  offset="1" style="stop-color:#E6E6E6"/>
			</linearGradient>
			<path class="st0" d="M836.32,163.43c-0.05-40.97-29.33-74.13-65.42-74.14l-342.22-0.08c-36.08-0.01-65.37,33.14-65.46,74.11
				l-0.21,870.48c0.06,40.97,29.34,74.13,65.42,74.14l342.23,0.08c36.09,0.01,65.38-33.14,65.46-74.11l0.21-870.48L836.32,163.43z"
				/>
		</g>
		<path class="st1" d="M778.91,81.67H421.09c-36.33,0-65.78,29.45-65.78,65.78v905.1c0,36.33,29.45,65.78,65.78,65.78h357.83
			c36.33,0,65.78-29.45,65.78-65.78v-905.1C844.69,111.12,815.24,81.67,778.91,81.67z M830.22,1043.77
			c0,27.25-22.09,49.33-49.33,49.33H419.11c-27.25,0-49.33-22.09-49.33-49.33V156.23c0-27.25,22.09-49.33,49.33-49.33
			c0,0,96.69,0,119.72,0c23.02,0,25.32,3.59,34.53,16.95c5.92,8.58,15.44,14.62,26.64,14.62c11.89,0,21.13-7.28,27.63-16.28
			c9.86-13.67,24.77-15.29,33.21-15.29c8.45,0,120.04,0,120.04,0c27.25,0,49.33,22.09,49.33,49.33L830.22,1043.77L830.22,1043.77z"
			/>
	</g>
</g>
<g id="Calque_2_1_">
</g>
<g transform="matrix(.35278 0 0 -.35278 -186.45 261.78)">
	<g transform="matrix(1.4354 0 0 1.4355 -242.08 -126.56)">
		<path class="st2" d="M1977.05-814.7h-514.94c-11.68,0-21.15,9.47-21.15,21.15v514.94c0,11.68,9.47,21.15,21.15,21.15h514.94
			c11.68,0,21.15-9.47,21.15-21.15v-514.94C1998.2-805.23,1988.73-814.7,1977.05-814.7"/>
		<g>
			<path class="st3" d="M1877.91-432.72h-43.84c-1.88,0-3.4-1.49-3.4-3.33v-200.02c0-1.82,1.52-3.32,3.4-3.32h43.84
				c1.86,0,3.4,1.49,3.4,3.32v200.02C1881.32-434.21,1879.77-432.72,1877.91-432.72"/>
			<path class="st3" d="M1728.22-432.72h-166.99c-1.88,0-3.39-1.49-3.39-3.33v-200.02c0-1.82,1.51-3.32,3.39-3.32h43.85
				c1.87,0,3.41,1.49,3.41,3.32v156.99c0,1.81,1.51,3.32,3.39,3.32h94.46c26.56,0,34.1-20.34,34.1-33.47v-126.84
				c0-1.82,1.53-3.32,3.4-3.32h43.82c1.87,0,3.4,1.49,3.4,3.32v141.9c0,11.71-1.41,28.54-16.51,43.35
				C1758.75-435.36,1744.34-432.72,1728.22-432.72"/>
			<path class="st3" d="M1697.51-512.39h-46.04c-1.88,0-3.42-1.49-3.42-3.32v-120.38c0-1.82,1.54-3.31,3.42-3.31h46.04
				c1.86,0,3.39,1.49,3.39,3.31v120.38C1700.89-513.88,1699.37-512.39,1697.51-512.39"/>
		</g>
	</g>
</g>
</svg>
